<?xml version="1.0" encoding="UTF-8"?>
<svg id="Layer_1" data-name="Layer 1" xmlns="http://www.w3.org/2000/svg" viewBox="0 0 207.18 300">
  <defs>
    <style>
      .cls-1 {
        fill: #b28114;
      }
    </style>
  </defs>
  <polygon class="cls-1" points="52.26 47.73 52.26 126.45 27.24 133.62 27.24 54.91 4.47 61.44 4.47 146.2 17.68 155.76 61.54 143.19 75.03 125.82 75.03 41.2 52.26 47.73"/>
  <polygon class="cls-1" points="177.79 11.74 165.14 77.78 152.2 19.08 129.01 25.73 116.36 92.33 103.29 33.1 79.95 39.79 104.55 130.86 128.03 124.12 140.68 63.56 152.91 116.99 176.52 110.22 201.26 5.01 177.79 11.74"/>
  <path class="cls-1" d="M26.66,176.99l58.9-16.89v19.4l-36.13,10.36v19.96l30.64-8.79v19.4l-30.64,8.79v19.96l36.41-10.44v19.4l-59.18,16.97v-98.12Zm75.14,63.21v-71.41l13.35-17.18,43.72-12.54,13.49,9.63v19.96l-22.77,6.53v-14.06l-25.02,7.18v59.46l25.02-7.18v-14.06l22.77-6.53v19.96l-13.35,17.18-43.86,12.58-13.35-9.52ZM4.47,169.12v126.57l186.33-53.43V115.69L4.47,169.12Z"/>
</svg>